<svg width="18" height="21" viewBox="0 0 18 21" fill="currentColor" xmlns="http://www.w3.org/2000/svg">
<path fill-rule="evenodd" clip-rule="evenodd" d="M17.6543 17.4074C17.4247 17.6814 17.1823 17.9421 16.9282 18.1887C16.8397 18.2746 16.7498 18.3587 16.6586 18.4411C14.8703 20.056 12.5566 21 10.0704 21C4.50458 21 0 16.2959 0 10.5C0 4.69674 4.51166 0 10.0704 0C10.0795 1.4177e-06 10.0887 1.66917e-05 10.0978 4.37868e-05C10.2146 0.00039044 10.3314 0.00283739 10.448 0.00738171C10.7911 0.0207469 11.1333 0.0522457 11.4734 0.101752C11.6195 0.123027 11.7652 0.147631 11.9104 0.175547C12.3434 0.258932 12.4392 0.861246 12.0582 1.08732C11.9332 1.1615 11.8106 1.23889 11.6905 1.31937C11.4283 1.49516 11.1775 1.68596 10.94 1.88979C10.8853 1.93668 10.8314 1.98427 10.7781 2.03255C9.07195 3.57837 8.06549 5.83045 8.06549 8.2402C8.06549 12.8068 11.6037 16.3983 15.8176 16.466C15.8906 16.4672 15.9638 16.4673 16.0372 16.4663C16.3463 16.4623 16.6587 16.4393 16.9734 16.3963C17.1278 16.3752 17.2828 16.3492 17.4381 16.3184C17.8678 16.2331 18.171 16.7549 17.8929 17.112C17.815 17.2121 17.7355 17.3106 17.6543 17.4074ZM13.5533 18.1695C9.2739 17.064 6.06549 13.0327 6.06549 8.2402C6.06549 6.08813 6.71873 4.02379 7.89308 2.31526C4.53469 3.30841 2 6.5423 2 10.5C2 15.2718 5.68796 19 10.0704 19C11.3023 19 12.4867 18.7076 13.5533 18.1695Z" fill="currentColor"/>
</svg>
