<svg width='17' stroke="none" height='16' fill='currentColor'
 viewBox="0 0 23 23" xmlns="http://www.w3.org/2000/svg">
<path fill-rule="evenodd" clip-rule="evenodd" d="M17.3598 9.5C17.3598 13.6421 14.0019 17 9.85977 17C5.71764 17 2.35977 13.6421 2.35977 9.5C2.35977 5.35786 5.71764 2 9.85977 2C14.0019 2 17.3598 5.35786 17.3598 9.5ZM16.5971 16.1977C14.8764 17.9285 12.4932 19 9.85977 19C4.61307 19 0.359772 14.7467 0.359772 9.5C0.359772 4.25329 4.61307 0 9.85977 0C15.1065 0 19.3598 4.25329 19.3598 9.5C19.3598 11.3935 18.8058 13.1577 17.851 14.6392L23.6402 19.4635C24.0644 19.817 24.1218 20.4476 23.7682 20.8719C23.4146 21.2962 22.7841 21.3535 22.3598 20.9999L16.5971 16.1977Z" fill='currentColor' stroke="none"/>
</svg>
